<mxfile host="app.diagrams.net" agent="Mozilla/5.0 (Windows NT 10.0; Win64; x64) AppleWebKit/537.36 (KHTML, like Gecko) Chrome/139.0.0.0 Safari/537.36" version="28.1.0">
  <diagram name="Page-1" id="UgYpfFs84t7cvc950pRW">
    <mxGraphModel grid="1" page="0" gridSize="10" guides="1" tooltips="1" connect="1" arrows="1" fold="1" pageScale="1" pageWidth="827" pageHeight="1169" math="0" shadow="0">
      <root>
        <mxCell id="0" />
        <mxCell id="1" parent="0" />
        <mxCell id="TmIIDkkpDqyuJVQTI_P9-45" value="" style="edgeStyle=none;curved=1;rounded=0;orthogonalLoop=1;jettySize=auto;html=1;fontSize=12;startSize=8;endSize=8;" edge="1" parent="1" source="TmIIDkkpDqyuJVQTI_P9-4" target="TmIIDkkpDqyuJVQTI_P9-5">
          <mxGeometry relative="1" as="geometry" />
        </mxCell>
        <mxCell id="TmIIDkkpDqyuJVQTI_P9-4" value="Start" style="ellipse;whiteSpace=wrap;html=1;" vertex="1" parent="1">
          <mxGeometry x="-122" y="-980" width="172" height="89" as="geometry" />
        </mxCell>
        <mxCell id="TmIIDkkpDqyuJVQTI_P9-19" value="" style="edgeStyle=none;curved=1;rounded=0;orthogonalLoop=1;jettySize=auto;html=1;fontSize=12;startSize=8;endSize=8;" edge="1" parent="1" source="TmIIDkkpDqyuJVQTI_P9-5" target="TmIIDkkpDqyuJVQTI_P9-6">
          <mxGeometry relative="1" as="geometry" />
        </mxCell>
        <mxCell id="TmIIDkkpDqyuJVQTI_P9-5" value="Read Real&amp;nbsp; -Time Clock&amp;nbsp;" style="shape=parallelogram;perimeter=parallelogramPerimeter;whiteSpace=wrap;html=1;fixedSize=1;" vertex="1" parent="1">
          <mxGeometry x="-146" y="-830" width="220" height="80" as="geometry" />
        </mxCell>
        <mxCell id="TmIIDkkpDqyuJVQTI_P9-20" value="" style="edgeStyle=none;curved=1;rounded=0;orthogonalLoop=1;jettySize=auto;html=1;fontSize=12;startSize=8;endSize=8;" edge="1" parent="1" source="TmIIDkkpDqyuJVQTI_P9-6" target="TmIIDkkpDqyuJVQTI_P9-8">
          <mxGeometry relative="1" as="geometry" />
        </mxCell>
        <mxCell id="TmIIDkkpDqyuJVQTI_P9-6" value="Is Current_Time = Feed Time ?&amp;nbsp;" style="rhombus;whiteSpace=wrap;html=1;" vertex="1" parent="1">
          <mxGeometry x="-146" y="-700" width="220" height="190" as="geometry" />
        </mxCell>
        <mxCell id="TmIIDkkpDqyuJVQTI_P9-32" value="" style="edgeStyle=none;curved=1;rounded=0;orthogonalLoop=1;jettySize=auto;html=1;fontSize=12;startSize=8;endSize=8;" edge="1" parent="1" source="TmIIDkkpDqyuJVQTI_P9-8" target="TmIIDkkpDqyuJVQTI_P9-17">
          <mxGeometry relative="1" as="geometry" />
        </mxCell>
        <mxCell id="TmIIDkkpDqyuJVQTI_P9-8" value="Is food_bin_sensor = Empty ?&amp;nbsp;&amp;nbsp;" style="rhombus;whiteSpace=wrap;html=1;" vertex="1" parent="1">
          <mxGeometry x="-134" y="-470" width="196" height="190" as="geometry" />
        </mxCell>
        <mxCell id="TmIIDkkpDqyuJVQTI_P9-9" value="Activate_Serving (90 degrees)&amp;nbsp;&lt;div&gt;&lt;br&gt;&lt;/div&gt;" style="rounded=0;whiteSpace=wrap;html=1;" vertex="1" parent="1">
          <mxGeometry x="-134" y="-240" width="194" height="60" as="geometry" />
        </mxCell>
        <mxCell id="TmIIDkkpDqyuJVQTI_P9-26" value="" style="edgeStyle=none;curved=1;rounded=0;orthogonalLoop=1;jettySize=auto;html=1;fontSize=12;startSize=8;endSize=8;" edge="1" parent="1" source="TmIIDkkpDqyuJVQTI_P9-11" target="TmIIDkkpDqyuJVQTI_P9-12">
          <mxGeometry relative="1" as="geometry" />
        </mxCell>
        <mxCell id="TmIIDkkpDqyuJVQTI_P9-11" value="Wait: 10 mins" style="rounded=0;whiteSpace=wrap;html=1;" vertex="1" parent="1">
          <mxGeometry x="-134" y="-150" width="194" height="60" as="geometry" />
        </mxCell>
        <mxCell id="TmIIDkkpDqyuJVQTI_P9-31" value="" style="edgeStyle=none;curved=1;rounded=0;orthogonalLoop=1;jettySize=auto;html=1;fontSize=12;startSize=8;endSize=8;" edge="1" parent="1" source="TmIIDkkpDqyuJVQTI_P9-12" target="TmIIDkkpDqyuJVQTI_P9-16">
          <mxGeometry relative="1" as="geometry" />
        </mxCell>
        <mxCell id="TmIIDkkpDqyuJVQTI_P9-12" value="Is bowl_weight_change &amp;lt; 5g ?&amp;nbsp;&lt;span style=&quot;white-space: pre;&quot;&gt;&#x9;&lt;/span&gt;" style="rhombus;whiteSpace=wrap;html=1;" vertex="1" parent="1">
          <mxGeometry x="-160" y="-50" width="244" height="190" as="geometry" />
        </mxCell>
        <mxCell id="TmIIDkkpDqyuJVQTI_P9-30" value="" style="edgeStyle=none;curved=1;rounded=0;orthogonalLoop=1;jettySize=auto;html=1;fontSize=12;startSize=8;endSize=8;" edge="1" parent="1" source="TmIIDkkpDqyuJVQTI_P9-15" target="TmIIDkkpDqyuJVQTI_P9-18">
          <mxGeometry relative="1" as="geometry" />
        </mxCell>
        <mxCell id="TmIIDkkpDqyuJVQTI_P9-15" value="Display: Food has been Consumed" style="shape=parallelogram;perimeter=parallelogramPerimeter;whiteSpace=wrap;html=1;fixedSize=1;" vertex="1" parent="1">
          <mxGeometry x="-148" y="170" width="220" height="80" as="geometry" />
        </mxCell>
        <mxCell id="TmIIDkkpDqyuJVQTI_P9-16" value="Send Alert: Food has not been consumed&amp;nbsp;" style="shape=parallelogram;perimeter=parallelogramPerimeter;whiteSpace=wrap;html=1;fixedSize=1;" vertex="1" parent="1">
          <mxGeometry x="170" y="5" width="220" height="80" as="geometry" />
        </mxCell>
        <mxCell id="TmIIDkkpDqyuJVQTI_P9-17" value="Send Alert: Food Bin Empty" style="shape=parallelogram;perimeter=parallelogramPerimeter;whiteSpace=wrap;html=1;fixedSize=1;" vertex="1" parent="1">
          <mxGeometry x="190" y="-420" width="220" height="80" as="geometry" />
        </mxCell>
        <mxCell id="TmIIDkkpDqyuJVQTI_P9-18" value="End" style="ellipse;whiteSpace=wrap;html=1;" vertex="1" parent="1">
          <mxGeometry x="-124" y="290" width="172" height="89" as="geometry" />
        </mxCell>
        <mxCell id="TmIIDkkpDqyuJVQTI_P9-24" value="" style="endArrow=classic;html=1;rounded=0;fontSize=12;startSize=8;endSize=8;curved=1;entryX=0.5;entryY=0;entryDx=0;entryDy=0;" edge="1" parent="1" target="TmIIDkkpDqyuJVQTI_P9-9">
          <mxGeometry width="50" height="50" relative="1" as="geometry">
            <mxPoint x="-36.620000000000005" y="-280" as="sourcePoint" />
            <mxPoint x="-36.620000000000005" y="-230" as="targetPoint" />
          </mxGeometry>
        </mxCell>
        <mxCell id="TmIIDkkpDqyuJVQTI_P9-25" value="" style="endArrow=classic;html=1;rounded=0;fontSize=12;startSize=8;endSize=8;curved=1;" edge="1" parent="1">
          <mxGeometry width="50" height="50" relative="1" as="geometry">
            <mxPoint x="-36.24" y="-180" as="sourcePoint" />
            <mxPoint x="-37" y="-150" as="targetPoint" />
          </mxGeometry>
        </mxCell>
        <mxCell id="TmIIDkkpDqyuJVQTI_P9-28" value="" style="edgeStyle=none;curved=1;rounded=0;orthogonalLoop=1;jettySize=auto;html=1;fontSize=12;startSize=8;endSize=8;" edge="1" parent="1">
          <mxGeometry relative="1" as="geometry">
            <mxPoint x="-38.629999999999995" y="140" as="sourcePoint" />
            <mxPoint x="-39" y="170" as="targetPoint" />
          </mxGeometry>
        </mxCell>
        <mxCell id="TmIIDkkpDqyuJVQTI_P9-39" value="" style="endArrow=none;html=1;rounded=0;fontSize=12;startSize=8;endSize=8;curved=1;entryX=0;entryY=0.5;entryDx=0;entryDy=0;" edge="1" parent="1" target="TmIIDkkpDqyuJVQTI_P9-6">
          <mxGeometry width="50" height="50" relative="1" as="geometry">
            <mxPoint x="-310" y="-605" as="sourcePoint" />
            <mxPoint x="-200" y="-580" as="targetPoint" />
          </mxGeometry>
        </mxCell>
        <mxCell id="TmIIDkkpDqyuJVQTI_P9-40" value="" style="endArrow=none;html=1;rounded=0;fontSize=12;startSize=8;endSize=8;curved=1;" edge="1" parent="1">
          <mxGeometry width="50" height="50" relative="1" as="geometry">
            <mxPoint x="-310" y="-600" as="sourcePoint" />
            <mxPoint x="-310" y="-870" as="targetPoint" />
          </mxGeometry>
        </mxCell>
        <mxCell id="TmIIDkkpDqyuJVQTI_P9-44" value="" style="ellipse;whiteSpace=wrap;html=1;aspect=fixed;" vertex="1" parent="1">
          <mxGeometry x="-46" y="-880" width="20" height="20" as="geometry" />
        </mxCell>
        <mxCell id="TmIIDkkpDqyuJVQTI_P9-46" value="" style="endArrow=classic;html=1;rounded=0;fontSize=12;startSize=8;endSize=8;curved=1;entryX=0;entryY=0.5;entryDx=0;entryDy=0;" edge="1" parent="1" target="TmIIDkkpDqyuJVQTI_P9-44">
          <mxGeometry width="50" height="50" relative="1" as="geometry">
            <mxPoint x="-310" y="-870" as="sourcePoint" />
            <mxPoint x="-250" y="-891" as="targetPoint" />
          </mxGeometry>
        </mxCell>
        <mxCell id="TmIIDkkpDqyuJVQTI_P9-47" value="Yes" style="text;strokeColor=none;align=center;fillColor=none;html=1;verticalAlign=middle;whiteSpace=wrap;rounded=0;fontSize=16;" vertex="1" parent="1">
          <mxGeometry x="-20" y="-520" width="60" height="30" as="geometry" />
        </mxCell>
        <mxCell id="TmIIDkkpDqyuJVQTI_P9-48" value="No" style="text;strokeColor=none;align=center;fillColor=none;html=1;verticalAlign=middle;whiteSpace=wrap;rounded=0;fontSize=16;" vertex="1" parent="1">
          <mxGeometry x="-250" y="-640" width="60" height="30" as="geometry" />
        </mxCell>
        <mxCell id="TmIIDkkpDqyuJVQTI_P9-49" value="Yes" style="text;strokeColor=none;align=center;fillColor=none;html=1;verticalAlign=middle;whiteSpace=wrap;rounded=0;fontSize=16;" vertex="1" parent="1">
          <mxGeometry x="110" y="-410" width="60" height="30" as="geometry" />
        </mxCell>
        <mxCell id="TmIIDkkpDqyuJVQTI_P9-50" value="No" style="text;strokeColor=none;align=center;fillColor=none;html=1;verticalAlign=middle;whiteSpace=wrap;rounded=0;fontSize=16;" vertex="1" parent="1">
          <mxGeometry x="-86" y="-280" width="60" height="30" as="geometry" />
        </mxCell>
        <mxCell id="TmIIDkkpDqyuJVQTI_P9-51" value="Yes" style="text;strokeColor=none;align=center;fillColor=none;html=1;verticalAlign=middle;whiteSpace=wrap;rounded=0;fontSize=16;" vertex="1" parent="1">
          <mxGeometry x="100" y="10" width="60" height="30" as="geometry" />
        </mxCell>
        <mxCell id="TmIIDkkpDqyuJVQTI_P9-52" value="No" style="text;strokeColor=none;align=center;fillColor=none;html=1;verticalAlign=middle;whiteSpace=wrap;rounded=0;fontSize=16;" vertex="1" parent="1">
          <mxGeometry x="-26" y="140" width="60" height="30" as="geometry" />
        </mxCell>
        <mxCell id="TmIIDkkpDqyuJVQTI_P9-53" value="Created By: u3309931&lt;div&gt;&lt;span style=&quot;white-space: pre;&quot;&gt;&#x9;&lt;/span&gt;&lt;span style=&quot;white-space: pre;&quot;&gt;&#x9;&lt;/span&gt;&amp;nbsp; &amp;nbsp; BIPIN KC&lt;/div&gt;" style="text;strokeColor=none;align=center;fillColor=none;html=1;verticalAlign=middle;whiteSpace=wrap;rounded=0;fontSize=16;" vertex="1" parent="1">
          <mxGeometry x="130" y="330" width="300" height="30" as="geometry" />
        </mxCell>
      </root>
    </mxGraphModel>
  </diagram>
</mxfile>
